# xmcd
#
# Track frame offsets: 
#        150
#        23375
#        42629
#        58788
#        77699
#        95822
#        113297
#        135905
#        152823
#        168188
#        184578
#        212839
#        229439
#        249362
#        278845
#        310375
#        331795
#
# Disc length: 4775 seconds
#
# Revision: 1
# Processed by: cddbd v1.5.2PL0 Copyright (c) Steve Scherf et al.
# Submitted via: ExactAudioCopy v1.3
#
DISCID=dc12a511
DTITLE=Various Artist - Blues - Golden Age '60s -'70s  vol.02  CD2
DYEAR=2017
DGENRE=Rock
TTITLE0=Lynyrd Skynyrd (1975) - Saturday Night Special
TTITLE1=ZZ Top (1979) - A Fool For Your Stockings
TTITLE2=Geordie (1974) - Goin' Down
TTITLE3=The Doors (1971) - Cars Hiss by My Window
TTITLE4=Jimi Hendrix (1968) - All Along The Watchtower
TTITLE5=Free (1969) - Woman
TTITLE6=Ufo (1976) - On With The Action
TTITLE7=Nazareth (1977) - Gimme What's Mine
TTITLE8=Slade (1973) - Coz I Luv You
TTITLE9=Bad Company (1976) - Simple Man
TTITLE10=Savoy Brown (1975) - Born Into Pain
TTITLE11=Dr. Feelgood (1977) - Walking On The Edge
TTITLE12=Grand Funk Railroad (1970) - Mean Mistreater
TTITLE13=Deep Purple (1973) - Place In Line
TTITLE14=Led Zeppelin (1973) - No Quarter
TTITLE15=Rod Stewart (1970) - Country Comforts
TTITLE16=The Allman Brothers Band (1973) - Pony Boy
EXTD=
EXTT0=
EXTT1=
EXTT2=
EXTT3=
EXTT4=
EXTT5=
EXTT6=
EXTT7=
EXTT8=
EXTT9=
EXTT10=
EXTT11=
EXTT12=
EXTT13=
EXTT14=
EXTT15=
EXTT16=
PLAYORDER=
